<?xml version="1.0" encoding="UTF-8" standalone="no"?>
<!DOCTYPE svg PUBLIC "-//W3C//DTD SVG 1.1//EN" "http://www.w3.org/Graphics/SVG/1.1/DTD/svg11.dtd">
<svg width="100%" height="100%" viewBox="0 0 200 200" version="1.1" xmlns="http://www.w3.org/2000/svg" xmlns:xlink="http://www.w3.org/1999/xlink" xml:space="preserve" xmlns:serif="http://www.serif.com/" style="fill-rule:evenodd;clip-rule:evenodd;stroke-linejoin:round;stroke-miterlimit:2;">
    <g transform="matrix(1,0,0,1,-41.73,-41.73)">
        <g>
            <g transform="matrix(1.0006,0,0,1.0006,-0.0250891,-0.0250891)">
                <path d="M101.13,173.24C104.63,173.24 107.9,172.71 110.84,171.7L110.84,173.24L124.96,173.24L124.96,136.08L140.94,162.29L142.53,162.29L158.51,136.08L158.51,173.24L172.63,173.24L172.63,159.56L184.55,159.56C196.73,159.56 206.17,150.12 206.17,138.38C206.17,126.64 196.73,117.2 184.55,117.2L172.63,117.2L172.63,110.23L158.5,110.23L141.73,137.68L124.96,110.23L110.84,110.23L110.84,150.83C110.84,155.51 108.63,159.48 101.13,159.48C93.63,159.48 91.42,155.51 91.42,150.83L91.42,117.2L77.3,117.2L77.3,152.07C77.3,165.3 87.54,173.24 101.13,173.24ZM172.63,130.43L184.55,130.43C188.87,130.43 192.05,133.87 192.05,138.37C192.05,142.87 188.87,146.31 184.55,146.31L172.63,146.31L172.63,130.43Z" style="fill:white;fill-rule:nonzero;"/>
            </g>
            <g transform="matrix(1.0006,0,0,1.0006,-0.0850891,-0.0850891)">
                <path d="M41.79,41.79L41.79,241.67L241.67,241.67L241.67,41.79L41.79,41.79ZM231.96,231.96L51.5,231.96L51.5,51.5L231.96,51.5L231.96,231.96Z" style="fill:white;fill-rule:nonzero;"/>
            </g>
            <g transform="matrix(1.0006,0,0,1.0006,-0.0250891,-0.0250891)">
                <path d="M124.21,181.02L118.47,181.02L118.47,196.18L121.93,196.18L121.93,191.42L124.2,191.42C127.19,191.42 129.51,189.1 129.51,186.22C129.52,183.34 127.2,181.02 124.21,181.02ZM124.21,188.17L121.94,188.17L121.94,184.27L124.21,184.27C125.27,184.27 126.05,185.11 126.05,186.22C126.05,187.33 125.27,188.17 124.21,188.17Z" style="fill:white;fill-rule:nonzero;"/>
            </g>
            <g transform="matrix(1.0006,0,0,1.0006,-0.0250891,-0.0250891)">
                <rect x="131.25" y="181.02" width="3.46" height="15.16" style="fill:white;"/>
            </g>
            <g transform="matrix(1.0006,0,0,1.0006,-0.0250891,-0.0250891)">
                <path d="M143.05,181.02L137.31,181.02L137.31,196.18L140.77,196.18L140.77,191.42L143.04,191.42C146.03,191.42 148.35,189.1 148.35,186.22C148.36,183.34 146.04,181.02 143.05,181.02ZM143.05,188.17L140.78,188.17L140.78,184.27L143.05,184.27C144.11,184.27 144.89,185.11 144.89,186.22C144.89,187.33 144.11,188.17 143.05,188.17Z" style="fill:white;fill-rule:nonzero;"/>
            </g>
            <g transform="matrix(1.0006,0,0,1.0006,-0.0250891,-0.0250891)">
                <path d="M157.38,190.77L161.44,190.77C160.9,192.22 159.58,193.11 157.56,193.11C154.62,193.11 152.8,191.23 152.8,188.65C152.8,185.99 154.71,184.1 157.26,184.1C158.97,184.1 160.34,184.88 160.96,185.88L163.9,184.19C162.62,182.15 160.18,180.73 157.27,180.73C152.81,180.73 149.32,184.24 149.32,188.63C149.32,192.98 152.74,196.49 157.51,196.49C161.75,196.49 164.98,193.67 164.98,189.04L164.98,187.74L157.38,187.74L157.38,190.77Z" style="fill:white;fill-rule:nonzero;"/>
            </g>
        </g>
    </g>
</svg>
