<?xml version="1.0" encoding="UTF-8" standalone="no"?>
<!DOCTYPE svg PUBLIC "-//W3C//DTD SVG 1.1//EN" "http://www.w3.org/Graphics/SVG/1.1/DTD/svg11.dtd">
<svg width="100%" height="100%" viewBox="0 0 3183 566" version="1.1" xmlns="http://www.w3.org/2000/svg" xmlns:xlink="http://www.w3.org/1999/xlink" xml:space="preserve" xmlns:serif="http://www.serif.com/" style="fill-rule:evenodd;clip-rule:evenodd;stroke-linejoin:round;stroke-miterlimit:2;">
    <g transform="matrix(1,0,0,1,-390.941,-1939.81)">
        <g transform="matrix(-0.00357072,4.16667,-4.16667,-0.00357072,4234.4,-25.8196)">
            <g transform="matrix(-0.91381,-0.406142,-0.406142,0.91381,489.308,876.185)">
                <path d="M-70.153,18.917L2.224,18.917L4.015,14.888L-68.362,14.888L-70.153,18.917Z" style="fill:rgb(227,223,15);fill-rule:nonzero;"/>
            </g>
            <g transform="matrix(-0.91381,-0.406142,-0.406142,0.91381,489.308,850.464)">
                <path d="M-70.152,18.916L2.224,18.916L4.014,14.887L-68.362,14.887L-70.152,18.916Z" style="fill:rgb(227,223,15);fill-rule:nonzero;"/>
            </g>
            <g transform="matrix(1,0,0,1,512.662,810.702)">
                <path d="M0,48.795C-15.138,48.795 -26.748,37.552 -26.748,22.047C-26.748,12.714 -22.119,4.483 -14.844,0L-8.965,10.142C-12.934,12.42 -15.285,16.829 -15.285,22.047C-15.285,31.158 -9.186,37.037 0,37.037C9.187,37.037 15.285,31.158 15.285,22.047C15.285,16.829 12.934,12.346 8.966,10.142L14.845,0C22.12,4.41 26.75,12.641 26.75,22.047C26.75,37.552 15.139,48.795 0,48.795" style="fill:rgb(227,223,15);fill-rule:nonzero;"/>
            </g>
            <g transform="matrix(1,0,0,1,512.662,797.838)">
                <path d="M0,-29.982C-9.186,-29.982 -15.285,-23.369 -15.285,-14.992C-15.285,-6.614 -9.186,0 0,0C9.187,0 15.285,-6.614 15.285,-14.992C15.285,-23.369 9.187,-29.982 0,-29.982M0,11.758C-15.138,11.758 -26.748,-0.22 -26.748,-14.992C-26.748,-29.762 -15.138,-41.74 0,-41.74C15.139,-41.74 26.75,-29.762 26.75,-14.992C26.75,-0.22 15.139,11.758 0,11.758" style="fill:rgb(227,223,15);fill-rule:nonzero;"/>
            </g>
            <g transform="matrix(1,0,0,1,486.942,750.951)">
                <path d="M0,-40.417L51.44,-40.417L51.44,-31.599L23.516,-11.758L51.44,-11.758L51.44,0L0,0L0,-8.818L27.925,-28.659L0,-28.659L0,-40.417Z" style="fill:rgb(227,223,15);fill-rule:nonzero;"/>
            </g>
            <g transform="matrix(1,0,0,1,498.259,683.708)">
                <path d="M0,7.716L9.92,7.716L9.92,-11.39L21.237,-11.39L21.237,7.716L40.123,7.716L40.123,19.474L-11.317,19.474L-11.317,-11.758L0,-11.758L0,7.716Z" style="fill:rgb(227,223,15);fill-rule:nonzero;"/>
            </g>
            <g transform="matrix(1,0,0,1,527.066,666.437)">
                <path d="M0,-32.334L11.316,-32.334L11.316,0L-40.124,0L-40.124,-31.967L-28.807,-31.967L-28.807,-11.758L-20.283,-11.758L-20.283,-30.13L-9.113,-30.13L-9.113,-11.758L0,-11.758L0,-32.334Z" style="fill:rgb(227,223,15);fill-rule:nonzero;"/>
            </g>
            <g transform="matrix(1,0,0,1,511.193,601.033)">
                <path d="M0,16.167L0,7.349C0,4.115 -2.866,1.47 -6.614,1.47C-10.362,1.47 -13.229,4.115 -13.229,7.349L-13.229,16.167L0,16.167ZM10.287,10.582L10.287,16.167L27.189,16.167L27.189,27.925L-24.251,27.925L-24.251,7.349C-24.251,-2.425 -16.388,-10.288 -6.614,-10.288C-0.295,-10.288 5.437,-6.467 8.304,-0.809L27.189,-11.758L27.189,0.882L10.287,10.582Z" style="fill:rgb(227,223,15);fill-rule:nonzero;"/>
            </g>
            <g transform="matrix(1,0,0,1,527.066,585.231)">
                <path d="M0,-32.334L11.316,-32.334L11.316,0L-40.124,0L-40.124,-31.967L-28.807,-31.967L-28.807,-11.758L-20.283,-11.758L-20.283,-30.129L-9.113,-30.129L-9.113,-11.758L0,-11.758L0,-32.334ZM-43.799,-13.08L-43.799,-2.425L-54.821,-10.215L-54.821,-21.091L-43.799,-28.88L-43.799,-18.225L-47.84,-15.652L-43.799,-13.08Z" style="fill:rgb(227,223,15);fill-rule:nonzero;"/>
            </g>
            <g transform="matrix(1,0,0,1,486.942,547.751)">
                <path d="M0,-40.418L51.44,-40.418L51.44,-31.6L23.516,-11.758L51.44,-11.758L51.44,0L0,0L0,-8.818L27.925,-28.66L0,-28.66L0,-40.418Z" style="fill:rgb(227,223,15);fill-rule:nonzero;"/>
            </g>
            <g transform="matrix(1,0,0,1,512.662,453.391)">
                <path d="M0,48.795C-15.138,48.795 -26.748,37.552 -26.748,22.047C-26.748,12.714 -22.119,4.483 -14.844,0L-8.965,10.142C-12.934,12.42 -15.285,16.829 -15.285,22.047C-15.285,31.158 -9.186,37.037 0,37.037C9.187,37.037 15.285,31.158 15.285,22.047C15.285,16.829 12.934,12.346 8.966,10.142L14.845,0C22.12,4.41 26.75,12.641 26.75,22.047C26.75,37.552 15.139,48.795 0,48.795" style="fill:rgb(227,223,15);fill-rule:nonzero;"/>
            </g>
            <g transform="matrix(1,0,0,1,0,-193.066)">
                <rect x="486.942" y="630.654" width="51.44" height="11.758" style="fill:rgb(227,223,15);"/>
            </g>
            <g transform="matrix(1,0,0,1,519.276,415.688)">
                <path d="M0,-12.051L-18.886,-6.026L0,0L0,-12.051ZM11.022,-15.578L11.022,3.527L19.106,6.099L19.106,18.96L-32.334,1.47L-32.334,-13.522L19.106,-31.011L19.106,-18.151L11.022,-15.578Z" style="fill:rgb(227,223,15);fill-rule:nonzero;"/>
            </g>
            <g transform="matrix(1,0,0,1,512.662,353.515)">
                <path d="M0,-22.927C-8.818,-22.927 -14.402,-17.343 -14.402,-9.259L-14.402,-0.441L14.404,-0.441L14.404,-9.259C14.404,-17.343 8.818,-22.927 0,-22.927M0,-34.244C14.551,-34.244 25.721,-23.442 25.721,-9.259L25.721,11.317L-25.72,11.317L-25.72,-9.259C-25.72,-23.442 -14.55,-34.244 0,-34.244" style="fill:rgb(227,223,15);fill-rule:nonzero;"/>
            </g>
            <g transform="matrix(1,0,0,1,519.276,301.411)">
                <path d="M0,-12.051L-18.886,-6.026L0,0L0,-12.051ZM11.022,-15.578L11.022,3.527L19.106,6.099L19.106,18.96L-32.334,1.47L-32.334,-13.522L19.106,-31.011L19.106,-18.151L11.022,-15.578Z" style="fill:rgb(227,223,15);fill-rule:nonzero;"/>
            </g>
            <g transform="matrix(1,0,0,1,566.603,900.284)">
                <path d="M0,7.716L9.92,7.716L9.92,-11.39L21.237,-11.39L21.237,7.716L40.123,7.716L40.123,19.474L-11.317,19.474L-11.317,-11.758L0,-11.758L0,7.716Z" style="fill:rgb(227,223,15);fill-rule:nonzero;"/>
            </g>
            <g transform="matrix(1,0,0,1,595.41,883.014)">
                <path d="M0,-32.334L11.316,-32.334L11.316,0L-40.124,0L-40.124,-31.967L-28.807,-31.967L-28.807,-11.758L-20.283,-11.758L-20.283,-30.129L-9.113,-30.129L-9.113,-11.758L0,-11.758L0,-32.334ZM-44.533,-19.988L-44.533,-9.406L-54.821,-15.285L-54.821,-28.513L-44.533,-19.988Z" style="fill:rgb(227,223,15);fill-rule:nonzero;"/>
            </g>
            <g transform="matrix(1,0,0,1,579.537,800.706)">
                <path d="M0,16.167L0,7.349C0,4.115 -2.866,1.47 -6.614,1.47C-10.362,1.47 -13.229,4.115 -13.229,7.349L-13.229,16.167L0,16.167ZM10.287,10.582L10.287,16.167L27.189,16.167L27.189,27.925L-24.251,27.925L-24.251,7.349C-24.251,-2.425 -16.388,-10.288 -6.614,-10.288C-0.295,-10.288 5.437,-6.467 8.304,-0.809L27.189,-11.758L27.189,0.882L10.287,10.582Z" style="fill:rgb(227,223,15);fill-rule:nonzero;"/>
            </g>
            <g transform="matrix(1,0,0,1,595.41,784.904)">
                <path d="M0,-32.334L11.316,-32.334L11.316,0L-40.124,0L-40.124,-31.967L-28.807,-31.967L-28.807,-11.758L-20.283,-11.758L-20.283,-30.13L-9.113,-30.13L-9.113,-11.758L0,-11.758L0,-32.334Z" style="fill:rgb(227,223,15);fill-rule:nonzero;"/>
            </g>
            <g transform="matrix(1,0,0,1,566.603,727.951)">
                <path d="M0,7.716L9.92,7.716L9.92,-11.39L21.237,-11.39L21.237,7.716L40.123,7.716L40.123,19.474L-11.317,19.474L-11.317,-11.758L0,-11.758L0,7.716Z" style="fill:rgb(227,223,15);fill-rule:nonzero;"/>
            </g>
            <g transform="matrix(1,0,0,1,581.005,701.125)">
                <path d="M0,-29.982C-9.186,-29.982 -15.285,-23.368 -15.285,-14.99C-15.285,-6.613 -9.186,0 0,0C9.187,0 15.285,-6.613 15.285,-14.99C15.285,-23.368 9.187,-29.982 0,-29.982M0,11.758C-15.138,11.758 -26.748,-0.219 -26.748,-14.99C-26.748,-29.761 -15.138,-41.74 0,-41.74C15.139,-41.74 26.75,-29.761 26.75,-14.99C26.75,-0.219 15.139,11.758 0,11.758" style="fill:rgb(227,223,15);fill-rule:nonzero;"/>
            </g>
            <g transform="matrix(1,0,0,1,579.537,626.314)">
                <path d="M0,16.167L0,7.349C0,4.115 -2.866,1.47 -6.614,1.47C-10.362,1.47 -13.229,4.115 -13.229,7.349L-13.229,16.167L0,16.167ZM10.287,10.582L10.287,16.167L27.189,16.167L27.189,27.925L-24.251,27.925L-24.251,7.349C-24.251,-2.425 -16.388,-10.288 -6.614,-10.288C-0.295,-10.288 5.437,-6.467 8.304,-0.809L27.189,-11.758L27.189,0.882L10.287,10.582Z" style="fill:rgb(227,223,15);fill-rule:nonzero;"/>
            </g>
            <g transform="matrix(1,0,0,1,606.726,610.512)">
                <path d="M0,-51.44L0,-39.682L-29.909,-39.682L-8.084,-26.381L-8.084,-25.058L-29.909,-11.757L0,-11.757L0,0L-51.44,0L-51.44,-11.757L-28.586,-25.72L-51.44,-39.682L-51.44,-51.44L0,-51.44Z" style="fill:rgb(227,223,15);fill-rule:nonzero;"/>
            </g>
            <g transform="matrix(1,0,0,1,587.62,537.171)">
                <path d="M0,-12.053L-18.886,-6.027L0,0L0,-12.053ZM11.022,-15.58L11.022,3.527L19.106,6.098L19.106,18.959L-32.334,1.468L-32.334,-13.522L19.106,-31.012L19.106,-18.152L11.022,-15.58Z" style="fill:rgb(227,223,15);fill-rule:nonzero;"/>
            </g>
            <g transform="matrix(1,0,0,1,581.005,491.9)">
                <path d="M0,-22.927C-8.818,-22.927 -14.402,-17.343 -14.402,-9.259L-14.402,-0.441L14.404,-0.441L14.404,-9.259C14.404,-17.343 8.818,-22.927 0,-22.927M0,-34.244C14.551,-34.244 25.721,-23.442 25.721,-9.259L25.721,11.317L-25.72,11.317L-25.72,-9.259C-25.72,-23.442 -14.55,-34.244 0,-34.244" style="fill:rgb(227,223,15);fill-rule:nonzero;"/>
            </g>
            <g transform="matrix(1,0,0,1,587.62,439.796)">
                <path d="M0,-12.053L-18.886,-6.027L0,0L0,-12.053ZM11.022,-15.58L11.022,3.527L19.106,6.098L19.106,18.959L-32.334,1.468L-32.334,-13.522L19.106,-31.012L19.106,-18.152L11.022,-15.58Z" style="fill:rgb(227,223,15);fill-rule:nonzero;"/>
            </g>
            <g transform="matrix(1,0,0,1,597.761,355.208)">
                <path d="M0,35.935L-5.879,25.721C-3.014,24.104 -1.471,22.414 -1.471,18.446C-1.471,13.302 -4.41,11.758 -7.569,11.758L-42.476,11.758L-42.476,0L-7.569,0C3.747,0 9.994,7.937 9.994,18.519C9.994,26.676 6.54,32.555 0,35.935" style="fill:rgb(227,223,15);fill-rule:nonzero;"/>
            </g>
            <g transform="matrix(1,0,0,1,581.005,338.672)">
                <path d="M0,-29.982C-9.186,-29.982 -15.285,-23.368 -15.285,-14.99C-15.285,-6.613 -9.186,0 0,0C9.187,0 15.285,-6.613 15.285,-14.99C15.285,-23.368 9.187,-29.982 0,-29.982M0,11.758C-15.138,11.758 -26.748,-0.219 -26.748,-14.99C-26.748,-29.761 -15.138,-41.74 0,-41.74C15.139,-41.74 26.75,-29.761 26.75,-14.99C26.75,-0.219 15.139,11.758 0,11.758" style="fill:rgb(227,223,15);fill-rule:nonzero;"/>
            </g>
            <g transform="matrix(1,0,0,1,555.286,249.899)">
                <path d="M0,48.501L0,35.641L37.846,24.25L0,12.86L0,0L51.44,16.755L51.44,31.746L0,48.501Z" style="fill:rgb(227,223,15);fill-rule:nonzero;"/>
            </g>
            <g transform="matrix(1,0,0,1,595.41,246.957)">
                <path d="M0,-32.334L11.316,-32.334L11.316,0L-40.124,0L-40.124,-31.967L-28.807,-31.967L-28.807,-11.758L-20.283,-11.758L-20.283,-30.13L-9.113,-30.13L-9.113,-11.758L0,-11.758L0,-32.334Z" style="fill:rgb(227,223,15);fill-rule:nonzero;"/>
            </g>
            <g transform="matrix(1,0,0,1,606.726,209.477)">
                <path d="M0,-51.44L0,-39.682L-29.909,-39.682L-8.084,-26.381L-8.084,-25.058L-29.909,-11.757L0,-11.757L0,0L-51.44,0L-51.44,-11.757L-28.586,-25.72L-51.44,-39.682L-51.44,-51.44L0,-51.44Z" style="fill:rgb(227,223,15);fill-rule:nonzero;"/>
            </g>
        </g>
    </g>
</svg>
