<?xml version="1.0" encoding="UTF-8" standalone="no"?>
<!DOCTYPE svg PUBLIC "-//W3C//DTD SVG 1.1//EN" "http://www.w3.org/Graphics/SVG/1.1/DTD/svg11.dtd">
<svg width="100%" height="100%" viewBox="0 0 3676 1244" version="1.1" xmlns="http://www.w3.org/2000/svg"
    xmlns:xlink="http://www.w3.org/1999/xlink" xml:space="preserve" xmlns:serif="http://www.serif.com/"
    style="fill-rule:evenodd;clip-rule:evenodd;stroke-linejoin:round;stroke-miterlimit:2;">
    <g transform="matrix(1,0,0,1,-662.265,-1878.48)">
        <g transform="matrix(4.16667,0,0,4.16667,0,0)">
            <g transform="matrix(1,0,0,1,367.63,559.112)">
                <path
                    d="M0,82.471C0,138.22 -45.355,183.575 -101.105,183.575C-156.854,183.575 -202.209,138.22 -202.209,82.471L-202.209,0.001C-202.209,-55.749 -156.854,-101.104 -101.105,-101.104C-45.355,-101.104 0,-55.749 0,0.001L0,82.471ZM-101.105,-107.582C-160.426,-107.582 -208.687,-59.321 -208.687,0.001L-208.687,82.471C-208.687,141.792 -160.426,190.053 -101.105,190.053C-41.783,190.053 6.478,141.792 6.478,82.471L6.478,0.001C6.478,-59.321 -41.783,-107.582 -101.105,-107.582"
                    style="fill:#eefb20;fill-rule:nonzero;" />
            </g>
            <g transform="matrix(1,0,0,1,338.5,558.402)">
                <path
                    d="M0,83.891C-2.266,87.941 -7.187,95.668 -15.33,103.353C-25.994,113.417 -44.478,125.414 -71.974,125.414C-99.47,125.414 -117.954,113.417 -128.618,103.353C-136.76,95.669 -141.681,87.941 -143.948,83.891L-131.347,78.163C-129.3,81.633 -125.151,87.813 -118.569,93.883C-108.387,103.273 -96.268,109.003 -82.55,110.913L-78.864,111.426L-78.864,85.33L-81.234,84.67C-96.065,80.541 -106.422,66.894 -106.422,51.482L-106.422,17.188C-98.089,17.983 -90.226,21.821 -84.471,27.988L-78.864,33.997L-78.864,-0.261L-106.422,-0.261L-106.422,-14.041L-78.864,-14.041L-78.864,-41.523L-65.084,-41.523L-65.084,-14.041L-37.526,-14.041L-37.526,-0.261L-65.084,-0.261L-65.084,33.997L-59.477,27.988C-53.629,21.721 -45.929,17.952 -37.526,17.181L-37.526,51.482C-37.526,66.894 -47.883,80.541 -62.714,84.67L-65.084,85.33L-65.084,111.42L-61.391,110.897C-31.911,106.721 -17.115,85.866 -12.593,78.167L0,83.891ZM-15.588,69.705L-16.943,72.616C-17.065,72.877 -29.003,97.84 -58.606,103.848L-58.606,90.172C-42.261,84.526 -31.048,68.959 -31.048,51.482L-31.048,10.556L-34.287,10.556C-43.069,10.556 -51.612,13.419 -58.606,18.576L-58.606,6.217L-31.048,6.217L-31.048,-20.519L-58.606,-20.519L-58.606,-48.001L-85.342,-48.001L-85.342,-20.519L-112.9,-20.519L-112.9,6.217L-85.342,6.217L-85.342,18.576C-92.336,13.419 -100.88,10.556 -109.661,10.556L-112.9,10.556L-112.9,51.482C-112.9,68.959 -101.687,84.526 -85.342,90.172L-85.342,103.874C-96.22,101.701 -105.907,96.748 -114.178,89.121C-122.909,81.069 -126.982,72.662 -127.02,72.582L-128.385,69.702L-152.678,80.744L-151.339,83.692C-151.107,84.202 -145.524,96.306 -133.064,108.065C-121.546,118.934 -101.598,131.892 -71.974,131.892C-42.35,131.892 -22.402,118.934 -10.884,108.065C1.577,96.305 7.159,84.202 7.391,83.692L8.731,80.744L-12.66,71.021L-15.588,69.705Z"
                    style="fill:#eefb20;fill-rule:nonzero;" />
            </g>
            <g transform="matrix(1,0,0,1,426.691,506.495)">
                <path
                    d="M0,7.269L34.774,7.269L34.774,1.076L0,1.076L0,-28.259L36.066,-28.259L36.066,-34.451L-6.516,-34.451L-6.516,41.72L0,41.72L0,7.269Z"
                    style="fill:#eefb20;fill-rule:nonzero;" />
            </g>
            <g transform="matrix(1,0,0,1,520.137,478.236)">
                <path
                    d="M0,63.786L-37.681,63.786L-37.681,34.666L-3.229,34.666L-3.229,28.473L-37.681,28.473L-37.681,0L-0.538,0L-0.538,-6.193L-44.197,-6.193L-44.197,69.979L0,69.979L0,63.786Z"
                    style="fill:#eefb20;fill-rule:nonzero;" />
            </g>
            <g transform="matrix(-1,0,0,1,492.515,465.317)">
                <path d="M-16.594,-14.482L-9.123,-14.482L0,0L-6.216,0L-16.594,-14.482Z"
                    style="fill:#eefb20;fill-rule:nonzero;" />
            </g>
            <g transform="matrix(1,0,0,1,426.691,598.168)">
                <path
                    d="M0,1.99L0,-30.898L23.603,-30.898C32.522,-30.898 39.778,-23.497 39.778,-14.401C39.778,-5.363 32.522,1.99 23.603,1.99L0,1.99ZM29.925,7.271C39.59,4.426 46.294,-4.411 46.294,-14.401C46.294,-26.912 36.114,-37.091 23.603,-37.091L-6.516,-37.091L-6.516,39.081L0,39.081L0,8.182L23.156,8.182L41.125,38.88L41.243,39.081L48.752,39.081L29.925,7.271Z"
                    style="fill:#eefb20;fill-rule:nonzero;" />
            </g>
            <g transform="matrix(1,0,0,1,529.826,631.056)">
                <path
                    d="M0,-63.786L0,-69.979L-43.658,-69.979L-43.658,6.193L0.538,6.193L0.538,0L-37.142,0L-37.142,-29.12L-2.691,-29.12L-2.691,-35.312L-37.142,-35.312L-37.142,-63.786L0,-63.786Z"
                    style="fill:#eefb20;fill-rule:nonzero;" />
            </g>
            <g transform="matrix(1,0,0,1,550.064,595.527)">
                <path
                    d="M0,7.27L34.774,7.27L34.774,1.077L0,1.077L0,-28.258L36.066,-28.258L36.066,-34.451L-6.516,-34.451L-6.516,41.721L0,41.721L0,7.27Z"
                    style="fill:#eefb20;fill-rule:nonzero;" />
            </g>
            <g transform="matrix(1,0,0,1,634.277,632.133)">
                <path
                    d="M0,-65.94C18.367,-65.94 32.755,-51.458 32.755,-32.97C32.755,-14.483 18.367,-0.001 0,-0.001C-18.367,-0.001 -32.754,-14.483 -32.754,-32.97C-32.754,-51.458 -18.367,-65.94 0,-65.94M0,6.3C10.602,6.3 20.502,2.224 27.875,-5.178C35.223,-12.554 39.27,-22.424 39.27,-32.97C39.27,-43.516 35.223,-53.386 27.875,-60.763C20.502,-68.164 10.603,-72.24 0,-72.24C-10.603,-72.24 -20.502,-68.164 -27.875,-60.763C-35.223,-53.386 -39.27,-43.516 -39.27,-32.97C-39.27,-22.424 -35.223,-12.554 -27.875,-5.178C-20.501,2.224 -10.602,6.3 0,6.3"
                    style="fill:#eefb20;fill-rule:nonzero;" />
            </g>
            <g transform="matrix(1,0,0,1,693.677,631.056)">
                <path
                    d="M0,-63.786L23.603,-63.786C32.522,-63.786 39.778,-56.385 39.778,-47.288C39.778,-38.251 32.522,-30.898 23.603,-30.898L0,-30.898L0,-63.786ZM0,-24.706L23.156,-24.706L41.125,5.993L41.243,6.193L48.752,6.193L29.925,-25.617C39.59,-28.462 46.294,-37.299 46.294,-47.288C46.294,-59.8 36.114,-69.979 23.603,-69.979L-6.516,-69.979L-6.516,6.193L0,6.193L0,-24.706Z"
                    style="fill:#eefb20;fill-rule:nonzero;" />
            </g>
            <g transform="matrix(1,0,0,1,787.58,593.055)">
                <path
                    d="M0,12.215L-26.687,-31.978L-34.425,-31.978L-34.425,44.193L-27.909,44.193L-27.909,-21.719L-0.66,23.523L0.767,23.523L28.017,-21.719L28.017,44.193L34.533,44.193L34.533,-31.978L26.687,-31.978L0,12.215Z"
                    style="fill:#eefb20;fill-rule:nonzero;" />
            </g>
            <g transform="matrix(1,0,0,1,848.779,586.433)">
                <path
                    d="M0,25.459L16.206,-16.822L32.412,25.459L0,25.459ZM12.914,-25.356L-16.47,50.264L-16.684,50.815L-9.784,50.815L-2.464,31.652L34.768,31.652L42.089,50.815L48.987,50.815L19.498,-25.356L12.914,-25.356Z"
                    style="fill:#eefb20;fill-rule:nonzero;" />
            </g>
            <g transform="matrix(1,0,0,1,936.469,567.27)">
                <path
                    d="M0,63.786L-22.204,63.786L-22.204,0L0,0C16.832,0 29.524,13.711 29.524,31.893C29.524,50.075 16.832,63.786 0,63.786M0,-6.193L-28.72,-6.193L-28.72,69.979L0,69.979C20.485,69.979 35.933,53.606 35.933,31.893C35.933,10.18 20.485,-6.193 0,-6.193"
                    style="fill:#eefb20;fill-rule:nonzero;" />
            </g>
            <g transform="matrix(1,0,0,1,992.07,586.433)">
                <path
                    d="M0,25.459L16.206,-16.822L32.412,25.459L0,25.459ZM19.498,-25.356L12.914,-25.356L-16.47,50.264L-16.684,50.815L-9.784,50.815L-2.464,31.652L34.767,31.652L42.089,50.815L48.987,50.815L19.498,-25.356Z"
                    style="fill:#eefb20;fill-rule:nonzero;" />
            </g>
            <g transform="matrix(1,0,0,1,456.349,672.371)">
                <path
                    d="M0,32.836C0,42.829 -6.731,48.795 -18.005,48.795C-26.777,48.795 -32.752,45.422 -35.285,39.039L-35.461,38.595L-41.021,41.931L-40.877,42.258C-37.274,50.417 -28.937,55.096 -18.005,55.096C-3.044,55.096 6.623,46.358 6.623,32.836L6.623,-22.26L0,-22.26L0,32.836Z"
                    style="fill:#eefb20;fill-rule:nonzero;" />
            </g>
            <g transform="matrix(1,0,0,1,514.672,655.228)">
                <path
                    d="M0,65.938C-18.367,65.938 -32.754,51.456 -32.754,32.969C-32.754,14.481 -18.367,-0.001 0,-0.001C18.367,-0.001 32.755,14.481 32.755,32.969C32.755,51.456 18.367,65.938 0,65.938M0,-6.301C-10.603,-6.301 -20.502,-2.225 -27.875,5.176C-35.223,12.553 -39.27,22.423 -39.27,32.969C-39.27,43.514 -35.223,53.385 -27.875,60.761C-20.502,68.163 -10.602,72.239 0,72.239C10.602,72.239 20.501,68.163 27.875,60.761C35.223,53.385 39.27,43.514 39.27,32.969C39.27,22.423 35.223,12.553 27.875,5.176C20.502,-2.225 10.603,-6.301 0,-6.301"
                    style="fill:#eefb20;fill-rule:nonzero;" />
            </g>
            <g transform="matrix(1,0,0,1,587.88,659.119)">
                <path
                    d="M0,58.154L-24.49,-8.743L-24.587,-9.009L-31.698,-9.009L-3.395,66.9L-3.296,67.163L3.294,67.163L31.492,-8.462L31.696,-9.009L24.694,-9.009L0,58.154Z"
                    style="fill:#eefb20;fill-rule:nonzero;" />
            </g>
            <g transform="matrix(1,0,0,1,635.975,685.424)">
                <path
                    d="M0,5.546L34.451,5.546L34.451,-0.646L0,-0.646L0,-29.12L37.142,-29.12L37.142,-35.313L-6.516,-35.313L-6.516,40.859L37.681,40.859L37.681,34.666L0,34.666L0,5.546Z"
                    style="fill:#eefb20;fill-rule:nonzero;" />
            </g>
            <g transform="matrix(1,0,0,1,721.265,682.089)">
                <path
                    d="M0,12.215L-26.687,-31.978L-34.425,-31.978L-34.425,44.193L-27.909,44.193L-27.909,-21.719L-0.66,23.523L0.767,23.523L28.017,-21.719L28.017,44.193L34.533,44.193L34.533,-31.978L26.687,-31.978L0,12.215Z"
                    style="fill:#eefb20;fill-rule:nonzero;" />
            </g>
        </g>
    </g>
</svg>