<?xml version="1.0" encoding="UTF-8" standalone="no"?>
<!DOCTYPE svg PUBLIC "-//W3C//DTD SVG 1.1//EN" "http://www.w3.org/Graphics/SVG/1.1/DTD/svg11.dtd">
<svg width="100%" height="100%" viewBox="0 0 897 1241" version="1.1" xmlns="http://www.w3.org/2000/svg"
    xmlns:xlink="http://www.w3.org/1999/xlink" xml:space="preserve" xmlns:serif="http://www.serif.com/"
    style="fill-rule:evenodd;clip-rule:evenodd;stroke-linejoin:round;stroke-miterlimit:2;">
    <g transform="matrix(1,0,0,1,-662.265,-1881.37)">
        <g transform="matrix(4.16667,0,0,4.16667,0,0)">
            <g transform="matrix(1,0,0,1,367.63,559.112)">
                <path
                    d="M0,82.471C0,138.22 -45.355,183.575 -101.105,183.575C-156.854,183.575 -202.209,138.22 -202.209,82.471L-202.209,0.001C-202.209,-55.749 -156.854,-101.104 -101.105,-101.104C-45.355,-101.104 0,-55.749 0,0.001L0,82.471ZM-101.105,-107.582C-160.426,-107.582 -208.687,-59.321 -208.687,0.001L-208.687,82.471C-208.687,141.792 -160.426,190.053 -101.105,190.053C-41.783,190.053 6.478,141.792 6.478,82.471L6.478,0.001C6.478,-59.321 -41.783,-107.582 -101.105,-107.582"
                    style="fill:rgb(29,30,28);fill-rule:nonzero;" />
            </g>
            <g transform="matrix(1,0,0,1,338.5,558.402)">
                <path
                    d="M0,83.891C-2.266,87.941 -7.187,95.668 -15.33,103.353C-25.994,113.417 -44.478,125.414 -71.974,125.414C-99.47,125.414 -117.954,113.417 -128.618,103.353C-136.76,95.669 -141.681,87.941 -143.948,83.891L-131.347,78.163C-129.3,81.633 -125.151,87.813 -118.569,93.883C-108.387,103.273 -96.268,109.003 -82.55,110.913L-78.864,111.426L-78.864,85.33L-81.234,84.67C-96.065,80.541 -106.422,66.894 -106.422,51.482L-106.422,17.188C-98.089,17.983 -90.226,21.821 -84.471,27.988L-78.864,33.997L-78.864,-0.261L-106.422,-0.261L-106.422,-14.041L-78.864,-14.041L-78.864,-41.523L-65.084,-41.523L-65.084,-14.041L-37.526,-14.041L-37.526,-0.261L-65.084,-0.261L-65.084,33.997L-59.477,27.988C-53.629,21.721 -45.929,17.952 -37.526,17.181L-37.526,51.482C-37.526,66.894 -47.883,80.541 -62.714,84.67L-65.084,85.33L-65.084,111.42L-61.391,110.897C-31.911,106.721 -17.115,85.866 -12.593,78.167L0,83.891ZM-15.588,69.705L-16.943,72.616C-17.065,72.877 -29.003,97.84 -58.606,103.848L-58.606,90.172C-42.261,84.526 -31.048,68.959 -31.048,51.482L-31.048,10.556L-34.287,10.556C-43.069,10.556 -51.612,13.419 -58.606,18.576L-58.606,6.217L-31.048,6.217L-31.048,-20.519L-58.606,-20.519L-58.606,-48.001L-85.342,-48.001L-85.342,-20.519L-112.9,-20.519L-112.9,6.217L-85.342,6.217L-85.342,18.576C-92.336,13.419 -100.88,10.556 -109.661,10.556L-112.9,10.556L-112.9,51.482C-112.9,68.959 -101.687,84.526 -85.342,90.172L-85.342,103.874C-96.22,101.701 -105.907,96.748 -114.178,89.121C-122.909,81.069 -126.982,72.662 -127.02,72.582L-128.385,69.702L-152.678,80.744L-151.339,83.692C-151.107,84.202 -145.524,96.306 -133.064,108.065C-121.546,118.934 -101.598,131.892 -71.974,131.892C-42.35,131.892 -22.402,118.934 -10.884,108.065C1.577,96.305 7.159,84.202 7.391,83.692L8.731,80.744L-12.66,71.021L-15.588,69.705Z"
                    style="fill:rgb(29,30,28);fill-rule:nonzero;" />
            </g>
        </g>
    </g>
</svg>